HIERARCHY
ROOT Hips
{
	OFFSET 0.00000 0.00000 0.00000
	CHANNELS 6 Xposition Yposition Zposition Zrotation Yrotation Xrotation 
	JOINT LHipJoint
	{
		OFFSET 0 0 0
		CHANNELS 3 Zrotation Yrotation Xrotation
		JOINT LeftHip
		{
			OFFSET 1.62329 -1.80800 0.67318
			CHANNELS 3 Zrotation Yrotation Xrotation
			JOINT LeftKnee
			{
				OFFSET 2.57139 -7.06484 0.00000
				CHANNELS 3 Zrotation Yrotation Xrotation
				JOINT LeftAnkle
				{
					OFFSET 2.52017 -6.92413 0.00000
					CHANNELS 3 Zrotation Yrotation Xrotation
					JOINT LeftToe
					{
						OFFSET 0.23295 -0.64001 2.10214
						CHANNELS 3 Zrotation Yrotation Xrotation
						End Site
						{
							OFFSET 0.00000 -0.00000 1.10139
						}
					}
				}
			}
		}
	}
	JOINT RHipJoint
	{
		OFFSET 0 0 0
		CHANNELS 3 Zrotation Yrotation Xrotation
		JOINT RightHip
		{
			OFFSET -1.48061 -1.80800 0.67318
			CHANNELS 3 Zrotation Yrotation Xrotation
			JOINT RightKnee
			{
				OFFSET -2.63258 -7.23296 0.00000
				CHANNELS 3 Zrotation Yrotation Xrotation
				JOINT RightAnkle
				{
					OFFSET -2.54779 -7.00000 0.00000
					CHANNELS 3 Zrotation Yrotation Xrotation
					JOINT RightToe
					{
						OFFSET -0.23067 -0.63376 2.12161
						CHANNELS 3 Zrotation Yrotation Xrotation
						End Site
						{
							OFFSET -0.00000 -0.00000 1.11000
						}
					}
				}
			}
		}
	}
	JOINT lowerback
	{
		OFFSET 0 0 0
		CHANNELS 3 Zrotation Yrotation Xrotation
		JOINT Chest
		{
			OFFSET -0.02108 2.07573 -0.16981
			CHANNELS 3 Zrotation Yrotation Xrotation
			JOINT Chest2
			{
				OFFSET 0.05070 2.08439 -0.03141
				CHANNELS 3 Zrotation Yrotation Xrotation
				JOINT lowerneck
				{
					OFFSET 0 0 0
					CHANNELS 3 Zrotation Yrotation Xrotation
					JOINT Neck
					{
						OFFSET -0.10731 1.60408 0.31370
						CHANNELS 3 Zrotation Yrotation Xrotation
						JOINT Head
						{
							OFFSET 0.08411 1.65679 -0.30822
							CHANNELS 3 Zrotation Yrotation Xrotation
							End Site
							{
								OFFSET 0.03911 1.69149 -0.14146
							}
						}
					}
				}
				JOINT LeftCollar
				{
					OFFSET 0 0 0
					CHANNELS 3 Zrotation Yrotation Xrotation
					JOINT LeftShoulder
					{
						OFFSET 3.52315 0.73219 -0.54694
CHANNELS 3 Zrotation Xrotation Yrotation
						JOINT LeftElbow
						{
OFFSET 0 -5.324620 -0.000000
CHANNELS 3 Zrotation Xrotation Yrotation
							JOINT LeftWrist
							{
OFFSET 0 -3.484020 -0.000000
CHANNELS 3 Zrotation Xrotation Yrotation
								JOINT lhand
								{
									OFFSET 0 0 0
CHANNELS 3 Zrotation Xrotation Yrotation
									JOINT LFingers
									{
OFFSET 0 -0.572480 -0.000000
CHANNELS 3 Zrotation Xrotation Yrotation
										End Site
										{
OFFSET 0 -0.461540 -0.000000
										}
									}
								}
								JOINT LThumb
								{
OFFSET 0 0.000000 0.000000
CHANNELS 3 Zrotation Xrotation Yrotation
									End Site
									{
OFFSET 0 -0.468590 0.468590
									}
								}
							}
						}
					}
				}
				JOINT RightCollar
				{
					OFFSET 0 0 0
					CHANNELS 3 Zrotation Yrotation Xrotation
					JOINT RightShoulder
					{
						OFFSET -3.41766 0.93592 -0.10019
CHANNELS 3 Zrotation Xrotation Yrotation
						JOINT RightElbow
						{
OFFSET 0 -5.335890 -0.000000
CHANNELS 3 Zrotation Xrotation Yrotation
							JOINT RightWrist
							{
OFFSET 0 -3.641340 -0.000000
CHANNELS 3 Zrotation Xrotation Yrotation
								JOINT rhand
								{
									OFFSET 0 0 0
CHANNELS 3 Zrotation Xrotation Yrotation
									JOINT RFingers
									{
OFFSET 0 -0.734810 -0.000000
CHANNELS 3 Zrotation Xrotation Yrotation
										End Site
										{
OFFSET 0 -0.592420 -0.000000
										}
									}
								}
								JOINT RThumb
								{
OFFSET 0 0.000000 0.000000
CHANNELS 3 Zrotation Xrotation Yrotation
									End Site
									{
OFFSET 0 -0.601470 0.601470
									}
								}
							}
						}
					}
				}
			}
		}
	}
}
MOTION
Frames: 11
Frame Time: 0.008333333333333333
-1.305443 17.771870 -7.257744 -2.266365 36.555212 0.497926 0.000000 0.000000 0.000000 -18.200886 -1.652301 -6.692674 1.968780 8.800694 25.173755 0.929211 -3.412957 -17.389428 0.495906 -4.514598 -12.529196 0.000000 0.000000 0.000000 7.921028 11.869634 -18.787030 -1.506677 -7.752281 21.964382 0.088733 -7.127207 -7.698495 -0.108944 -2.125230 5.851993 -6.645047 -2.130240 4.871402 -0.995937 -3.067081 2.955887 2.812362 -1.603507 0.624104 -13.780396 -6.652262 -18.494033 4.225510 -6.226374 28.547933 2.913711 -3.640469 13.336114 0.000000 0.000000 0.000000 22.664653 -34.410272 -36.156846 84.078766 -59.837466 54.875819 -7.757709 -69.060246 -31.239781 0.000000 0.000000 0.000000 -7.125000 0.000000 0.000000 -41.977194 56.007904 12.940032 0.000000 0.000000 0.000000 -43.467833 -22.281089 19.669251 -70.109971 -58.417742 -42.869523 -13.663090 -47.999519 -1.476487 0.000000 0.000000 0.000000 7.125000 0.000000 0.000000 9.986038 28.406791 4.096653
-1.399221 17.762622 -7.141073 -2.205494 37.999180 -0.042834 0.000000 0.000000 0.000000 -17.674387 -1.996036 -5.861264 1.927816 8.714055 24.904866 0.907470 -4.119424 -17.089135 0.490554 -4.490951 -12.462142 0.000000 0.000000 0.000000 7.661356 12.269175 -17.207336 -1.372256 -7.413404 20.946141 0.131643 -6.990922 -5.503399 -0.075641 -1.774021 4.881457 -6.822197 -2.555002 4.836285 -0.814219 -3.653102 2.651502 3.122849 -1.887813 0.409791 -14.109530 -6.536945 -18.942272 4.142843 -5.850251 29.706651 3.011393 -3.546359 13.899747 0.000000 0.000000 0.000000 23.138627 -47.063544 -39.317808 53.716750 -54.372975 29.173728 9.114089 -64.806340 -38.472805 0.000000 0.000000 0.000000 -7.125000 0.000000 0.000000 -33.700575 65.818395 17.797995 0.000000 0.000000 0.000000 -47.506320 -33.566136 9.836521 -42.533906 -49.483532 -20.351042 -19.190874 -55.827379 4.283178 0.000000 0.000000 0.000000 7.125000 0.000000 0.000000 6.148937 34.463438 1.598082
-1.499047 17.766734 -6.981335 -1.765832 39.041356 0.340031 0.000000 0.000000 0.000000 -17.489983 -3.001185 -5.196545 1.829144 8.500682 24.245439 0.880466 -3.975232 -16.839658 0.576790 -4.863229 -13.518842 0.000000 0.000000 0.000000 7.881068 11.655241 -17.256134 -1.483868 -7.696142 21.794889 0.109449 -6.487335 -5.345486 -0.294303 -3.488662 9.642378 -7.100017 -3.138783 4.816563 -0.300998 -4.452843 2.408179 3.834720 -2.287771 0.316695 -14.472228 -6.274709 -19.885890 3.236637 -4.860772 30.293345 2.876775 -3.291462 14.248622 0.000000 0.000000 0.000000 21.961788 -58.363761 -38.333932 39.958897 -48.044625 18.409025 17.476837 -67.199369 -39.349540 0.000000 0.000000 0.000000 -7.125000 0.000000 0.000000 -25.749387 69.063097 15.211200 0.000000 0.000000 0.000000 -51.140930 -44.574662 -3.397827 -33.172831 -43.462448 -13.540850 -23.584764 -53.317308 5.804755 0.000000 0.000000 0.000000 7.125000 0.000000 0.000000 2.633711 36.298886 0.564058
-1.581041 17.785388 -6.725563 -1.066104 38.255913 1.689421 0.000000 0.000000 0.000000 -17.381611 -3.103860 -4.601328 1.614755 8.012783 22.752885 0.874100 -3.002240 -16.910112 0.584281 -4.894113 -13.606784 0.000000 0.000000 0.000000 8.463343 11.877054 -18.336187 -1.597037 -7.970799 22.625359 0.054611 -5.706118 -6.256356 -0.349922 -3.800172 10.515196 -6.712825 -3.187888 4.680689 -0.451017 -4.518703 1.886532 3.480565 -2.288072 -0.185256 -13.636869 -5.936773 -20.680969 2.661688 -4.341871 30.557337 2.593197 -3.055765 14.431958 0.000000 0.000000 0.000000 20.669842 -63.517872 -35.226102 42.037276 -49.228669 19.969645 13.125914 -65.944223 -34.966443 0.000000 0.000000 0.000000 -7.125000 0.000000 0.000000 -25.124080 63.953295 11.906258 0.000000 0.000000 0.000000 -50.673997 -48.491195 -7.564166 -42.721293 -49.591717 -20.491281 -20.750831 -56.424347 2.439249 0.000000 0.000000 0.000000 7.125000 0.000000 0.000000 4.724840 32.563783 1.443728
-1.670635 17.779397 -6.374420 -0.772525 36.759119 2.832877 0.000000 0.000000 0.000000 -16.804690 -3.012294 -3.772576 1.424938 7.548419 21.350828 0.895876 -1.393829 -17.471286 0.728701 -5.454082 -15.208504 0.000000 0.000000 0.000000 9.471420 12.399579 -18.793236 -1.594890 -7.965626 22.609753 -0.027626 -4.273606 -7.076185 -0.436791 -4.240196 11.753489 -6.433732 -2.912006 4.213862 -0.459194 -4.118182 1.640343 3.286627 -2.080224 -0.244661 -13.406291 -5.878114 -20.376916 2.817486 -4.461227 29.876414 2.594165 -3.040828 14.067674 0.000000 0.000000 0.000000 20.945560 -64.272443 -31.832326 56.415637 -55.262497 31.379673 1.853078 -72.236717 -27.910724 0.000000 0.000000 0.000000 -7.125000 0.000000 0.000000 -30.286865 55.203443 8.126290 0.000000 0.000000 0.000000 -51.190070 -46.570697 -3.038416 -67.448080 -57.956640 -40.606805 -15.371252 -56.808517 -3.999004 0.000000 0.000000 0.000000 7.125000 0.000000 0.000000 8.497871 25.820860 3.991030
-1.779284 17.761597 -6.015882 -0.964526 35.214394 3.388504 0.000000 0.000000 0.000000 -15.952832 -3.720476 -2.427699 1.293618 7.206282 20.327943 0.879801 1.404899 -18.282386 0.944969 -6.190467 -17.338240 0.000000 0.000000 0.000000 10.752009 11.634674 -20.571363 -1.870601 -8.590806 24.523730 -0.084604 -0.832577 -5.871067 -0.127296 -2.297679 6.329159 -5.592074 -2.702651 4.781028 -0.445680 -3.855135 1.408322 2.867532 -1.923252 -0.885172 -13.695868 -5.700400 -20.460244 3.531544 -4.333288 29.696957 2.955315 -2.915850 14.015840 0.000000 0.000000 0.000000 22.378662 -61.068152 -28.592786 80.853251 -59.659602 52.088798 -9.022096 -73.830185 -22.837818 0.000000 0.000000 0.000000 -7.125000 0.000000 0.000000 -36.596480 49.082097 4.195124 0.000000 0.000000 0.000000 -50.730793 -42.336916 4.700886 -104.016510 -59.211785 -72.104047 -7.293453 -51.261364 -8.757255 0.000000 0.000000 0.000000 7.125000 0.000000 0.000000 14.054551 21.249373 8.256685
-1.905268 17.727572 -5.640313 -1.666796 34.085731 3.381364 0.000000 0.000000 0.000000 -14.569460 -4.377857 -1.507925 1.324670 7.289054 20.574463 0.893133 3.516359 -19.455796 1.102153 -6.670644 -18.743201 0.000000 0.000000 0.000000 12.742360 10.724963 -22.280233 -2.260321 -9.388198 27.017537 -0.083142 1.857447 -5.121084 -0.208747 -2.939608 8.110748 -4.906880 -2.611873 4.791895 -0.152202 -3.681990 1.916027 2.764926 -1.858006 -0.407801 -13.399694 -5.628749 -20.576842 3.255042 -4.240687 28.415861 2.790503 -2.842701 13.462810 0.000000 0.000000 0.000000 22.916068 -54.378284 -26.992799 107.311157 -58.826205 74.931883 -18.982883 -75.556000 -20.862902 0.000000 0.000000 0.000000 -7.125000 0.000000 0.000000 -43.356917 46.035267 1.363513 0.000000 0.000000 0.000000 -50.733989 -37.612397 13.938730 -128.248230 -53.665392 -92.417278 1.783699 -44.839269 -12.565024 0.000000 0.000000 0.000000 7.125000 0.000000 0.000000 19.883955 17.791919 13.708945
-2.051830 17.697633 -5.259440 -1.757026 34.224556 3.333576 0.000000 0.000000 0.000000 -13.519741 -4.807934 -0.629809 1.379219 7.431391 20.999854 0.880165 4.378265 -19.828940 1.268820 -7.139401 -20.129036 0.000000 0.000000 0.000000 14.120434 10.582061 -22.739771 -2.637592 -10.083815 29.248686 -0.101010 3.179641 -5.735293 -0.374335 -3.929496 10.878453 -4.912099 -2.797607 5.543244 -0.091407 -3.965928 2.002945 2.882363 -1.993068 -0.707830 -12.970047 -5.677213 -20.759176 2.932482 -4.339031 28.046156 2.565661 -2.871965 13.331849 0.000000 0.000000 0.000000 21.025325 -44.884974 -28.725506 117.850052 -56.856071 83.864357 -28.379709 -75.409301 -19.257844 0.000000 0.000000 0.000000 -7.125000 0.000000 0.000000 -48.835537 43.394005 -2.647547 0.000000 0.000000 0.000000 -49.710813 -31.529799 24.630495 -135.119918 -50.709557 -97.854062 8.901098 -35.213706 -14.917400 0.000000 0.000000 0.000000 7.125000 0.000000 0.000000 24.101807 15.602642 18.467678
-2.185186 17.696933 -4.903051 -2.356791 34.819898 2.955990 0.000000 0.000000 0.000000 -11.810803 -5.033991 -0.805119 1.598702 7.974791 22.637578 0.854002 4.029785 -19.366076 1.316656 -7.266638 -20.508168 0.000000 0.000000 0.000000 16.001379 10.140625 -22.505016 -2.831988 -10.417885 30.340894 -0.129843 3.795877 -6.535309 -0.364792 -3.879649 10.738367 -4.490074 -2.866438 5.489854 -0.145533 -4.016007 2.476462 2.574328 -2.033841 -0.219203 -12.664023 -6.111030 -21.378846 3.103372 -5.045705 27.500432 2.436866 -3.106322 13.288225 0.000000 0.000000 0.000000 18.550101 -38.755290 -31.620770 108.216070 -58.707259 75.707003 -25.194123 -73.209884 -21.932602 0.000000 0.000000 0.000000 -7.125000 0.000000 0.000000 -48.620284 45.938746 1.490717 0.000000 0.000000 0.000000 -48.233697 -26.432660 29.222164 -126.853336 -54.187283 -91.292763 9.683564 -29.912486 -14.267703 0.000000 0.000000 0.000000 7.125000 0.000000 0.000000 24.674823 16.188414 18.653861
-2.337146 17.724458 -4.617078 -2.363652 37.082002 2.954880 0.000000 0.000000 0.000000 -10.411050 -6.594923 -1.843843 1.975350 8.814447 25.216745 0.840713 2.107658 -18.204545 1.039379 -6.484036 -18.195429 0.000000 0.000000 0.000000 17.148024 8.837324 -22.209829 -2.897830 -10.527744 30.703187 -0.199041 3.621691 -7.955095 -0.497061 -4.518933 12.541595 -4.844611 -3.079522 5.726615 0.046167 -4.319133 2.663977 2.988210 -2.194868 -0.090676 -13.398106 -6.869412 -21.717401 3.362003 -5.895175 27.350307 2.488131 -3.509943 13.420283 0.000000 0.000000 0.000000 16.750062 -39.534750 -36.070465 81.914957 -59.738728 53.004994 -8.409693 -71.427152 -29.202840 0.000000 0.000000 0.000000 -7.125000 0.000000 0.000000 -40.750812 54.304290 10.643969 0.000000 0.000000 0.000000 -49.359913 -24.590289 25.983408 -101.849658 -59.442351 -70.241678 -0.577192 -33.728930 -11.826927 0.000000 0.000000 0.000000 7.125000 0.000000 0.000000 18.396221 18.453598 12.280190
-2.484662 17.763629 -4.374394 -2.575352 39.424781 2.724039 0.000000 0.000000 0.000000 -9.002061 -7.149707 -2.795651 2.180057 9.231438 26.521892 0.705008 1.050055 -16.276037 1.031408 -6.456682 -18.116477 0.000000 0.000000 0.000000 18.300057 8.129880 -21.506673 -2.883839 -10.504578 30.626584 -0.295729 2.574579 -9.705324 -0.536072 -4.691263 13.029990 -4.919304 -3.710544 5.716005 0.233339 -5.154759 2.783043 3.248815 -2.622241 0.136149 -13.851575 -6.863863 -21.907603 3.340928 -5.673824 27.875824 2.595418 -3.474869 13.682058 0.000000 0.000000 0.000000 15.064045 -45.908284 -38.710706 56.073787 -55.150051 31.100262 7.605149 -70.850165 -38.304661 0.000000 0.000000 0.000000 -7.125000 0.000000 0.000000 -35.062781 65.248489 18.160072 0.000000 0.000000 0.000000 -51.796552 -30.524704 18.957431 -64.997633 -57.468498 -38.535267 -10.098482 -45.276291 -1.635989 0.000000 0.000000 0.000000 7.125000 0.000000 0.000000 12.695425 28.229869 5.306656
